<?xml version="1.0" encoding="UTF-8" standalone="no"?>
<svg
   xmlns:dc="http://purl.org/dc/elements/1.1/"
   xmlns:cc="http://creativecommons.org/ns#"
   xmlns:rdf="http://www.w3.org/1999/02/22-rdf-syntax-ns#"
   xmlns:svg="http://www.w3.org/2000/svg"
   xmlns="http://www.w3.org/2000/svg"
   xmlns:sodipodi="http://sodipodi.sourceforge.net/DTD/sodipodi-0.dtd"
   xmlns:inkscape="http://www.inkscape.org/namespaces/inkscape"
   width="48"
   fill="#000000"
   height="48"
   viewBox="0 0 48 48"
   enable-background="new 0 0 16 16"
   version="1.1"
   id="svg4"
   sodipodi:docname="asterisk_icon_177696.svg"
   inkscape:version="0.92.5 (2060ec1f9f, 2020-04-08)">
  <metadata
     id="metadata10">
    <rdf:RDF>
      <cc:Work
         rdf:about="">
        <dc:format>image/svg+xml</dc:format>
        <dc:type
           rdf:resource="http://purl.org/dc/dcmitype/StillImage" />
      </cc:Work>
    </rdf:RDF>
  </metadata>
  <defs
     id="defs8" />
  <sodipodi:namedview
     pagecolor="#ffffff"
     bordercolor="#666666"
     borderopacity="1"
     objecttolerance="10"
     gridtolerance="10"
     guidetolerance="10"
     inkscape:pageopacity="0"
     inkscape:pageshadow="2"
     inkscape:window-width="1855"
     inkscape:window-height="1056"
     id="namedview6"
     showgrid="false"
     inkscape:zoom="4.9166667"
     inkscape:cx="24"
     inkscape:cy="24"
     inkscape:window-x="65"
     inkscape:window-y="24"
     inkscape:window-maximized="1"
     inkscape:current-layer="svg4" />
  <path
     d="m42.588,20.196c-1.53,.882-6.24,2.715-10.554,3.804 4.314,1.089 9.024,2.922 10.557,3.804 2.865,1.656 3.849,5.325 2.193,8.196-1.656,2.871-5.325,3.852-8.193,2.196-1.533-.885-5.475-4.053-8.574-7.245 1.215,4.284 1.983,9.282 1.983,11.049 0,3.312-2.688,6-6,6s-6-2.688-6-6c0-1.767 .768-6.765 1.986-11.049-3.099,3.192-7.041,6.36-8.574,7.245-2.871,1.656-6.54,.675-8.196-2.196s-.675-6.54 2.196-8.196c1.53-.882 6.24-2.715 10.557-3.804-4.317-1.089-9.027-2.922-10.557-3.804-2.871-1.656-3.852-5.325-2.196-8.196s5.325-3.852 8.196-2.196c1.533,.885 5.475,4.053 8.574,7.245-1.218-4.284-1.986-9.282-1.986-11.049 0-3.312 2.688-6 6-6s6,2.688 6,6c0,1.767-.768,6.765-1.986,11.049 3.099-3.192 7.044-6.36 8.574-7.245 2.868-1.656 6.54-.675 8.193,2.196 1.659,2.871 .675,6.54-2.193,8.196z"
     id="path2"
     style="fill:#dfdbd2;fill-opacity:1" />
</svg>
