<?xml version="1.0" encoding="UTF-8" standalone="no"?>
<svg
   xmlns:dc="http://purl.org/dc/elements/1.1/"
   xmlns:cc="http://creativecommons.org/ns#"
   xmlns:rdf="http://www.w3.org/1999/02/22-rdf-syntax-ns#"
   xmlns:svg="http://www.w3.org/2000/svg"
   xmlns="http://www.w3.org/2000/svg"
   xmlns:sodipodi="http://sodipodi.sourceforge.net/DTD/sodipodi-0.dtd"
   xmlns:inkscape="http://www.inkscape.org/namespaces/inkscape"
   version="1.0"
   width="1280.000000pt"
   height="1280.000000pt"
   viewBox="0 0 1280.000000 1280.000000"
   preserveAspectRatio="xMidYMid meet"
   id="svg8"
   sodipodi:docname="1876220.svg"
   inkscape:version="0.92.5 (2060ec1f9f, 2020-04-08)">
  <defs
     id="defs12" />
  <sodipodi:namedview
     pagecolor="#ffffff"
     bordercolor="#666666"
     borderopacity="1"
     objecttolerance="10"
     gridtolerance="10"
     guidetolerance="10"
     inkscape:pageopacity="0"
     inkscape:pageshadow="2"
     inkscape:window-width="1855"
     inkscape:window-height="1056"
     id="namedview10"
     showgrid="false"
     inkscape:zoom="0.13828125"
     inkscape:cx="853.33333"
     inkscape:cy="853.33333"
     inkscape:window-x="65"
     inkscape:window-y="24"
     inkscape:window-maximized="1"
     inkscape:current-layer="svg8" />
  <metadata
     id="metadata2">
Created by potrace 1.15, written by Peter Selinger 2001-2017
<rdf:RDF>
  <cc:Work
     rdf:about="">
    <dc:format>image/svg+xml</dc:format>
    <dc:type
       rdf:resource="http://purl.org/dc/dcmitype/StillImage" />
  </cc:Work>
</rdf:RDF>
</metadata>
  <g
     transform="translate(0.000000,1280.000000) scale(0.100000,-0.100000)"
     fill="#000000"
     stroke="none"
     id="g6"
     style="fill:#dfdbd2;fill-opacity:1">
    <path
       d="M8550 10967 c-140 -36 -202 -67 -343 -170 -226 -166 -318 -227 -382 -257 -61 -27 -78 -31 -130 -27 -34 2 -89 17 -125 32 -94 40 -272 103 -371 132 -71 21 -99 35 -160 84 -200 160 -430 228 -660 195 -57 -8 -140 -18 -184 -21 -132 -11 -371 -64 -610 -137 -171 -52 -469 -193 -710 -335 -151 -90 -225 -139 -425 -287 -70 -51 -432 -369 -486 -427 -54 -57 -229 -286 -299 -391 -31 -46 -82 -119 -115 -163 -76 -103 -168 -263 -223 -391 -24 -56 -53 -114 -64 -130 -44 -63 -133 -244 -167 -339 -47 -134 -98 -260 -152 -375 -24 -52 -68 -167 -98 -255 -30 -88 -82 -236 -116 -330 -34 -93 -68 -190 -76 -215 -18 -59 -64 -343 -64 -395 0 -53 -42 -267 -74 -380 -14 -50 -35 -135 -47 -190 -18 -83 -38 -145 -55 -164 -1 -2 -15 6 -31 16 -108 75 -438 119 -603 80 -161 -38 -355 -154 -453 -270 -85 -100 -164 -237 -194 -332 -25 -83 -27 -103 -28 -255 0 -160 1 -167 28 -224 15 -32 26 -60 25 -61 -2 -1 -37 -20 -78 -41 -101 -52 -220 -166 -260 -248 -47 -95 -66 -210 -52 -308 18 -126 163 -433 250 -530 53 -58 175 -142 233 -160 49 -14 51 -18 73 -98 42 -160 146 -314 281 -417 93 -72 287 -166 400 -194 70 -18 120 -23 228 -24 l139 -1 31 -58 c44 -82 192 -235 292 -301 146 -98 313 -162 495 -190 25 -4 86 -27 136 -51 180 -86 201 -89 599 -89 371 1 419 5 575 51 l85 26 78 -47 c93 -56 243 -119 352 -147 68 -18 113 -22 302 -23 l221 -2 64 -47 c114 -86 276 -152 480 -198 87 -20 131 -23 288 -23 178 0 189 1 303 33 120 33 236 76 310 114 40 20 55 21 262 19 249 -2 411 10 535 39 132 32 302 89 376 126 l67 34 86 -34 c138 -56 227 -69 415 -64 191 6 274 27 439 109 121 61 183 103 320 212 123 99 157 133 238 240 110 145 161 288 161 457 1 112 -19 194 -68 292 -39 78 -41 71 39 190 85 127 122 264 114 428 -7 128 -25 199 -79 310 -58 119 -162 222 -279 278 -46 22 -99 43 -116 47 -25 5 -33 12 -33 28 0 12 -21 65 -47 117 -60 121 -136 201 -242 253 -41 21 -92 40 -113 44 -31 4 -38 9 -33 22 27 69 35 149 43 426 8 254 6 341 -9 570 -11 149 -26 329 -35 400 -22 180 -137 636 -234 930 -78 235 -184 604 -176 612 5 5 142 -63 251 -125 150 -84 920 -613 1008 -692 4 -4 -18 -34 -50 -66 -67 -69 -115 -158 -143 -270 -44 -173 -5 -342 115 -499 95 -124 267 -241 415 -282 52 -14 79 -29 135 -78 93 -80 143 -108 272 -151 78 -27 131 -38 193 -41 72 -4 95 -10 152 -39 136 -70 294 -91 441 -58 100 22 221 82 292 146 44 39 74 57 110 66 114 28 172 68 328 227 128 129 154 161 188 230 51 103 65 181 49 274 -11 65 -50 163 -82 205 -12 15 -13 29 -5 70 12 65 1 350 -18 458 -16 91 -38 162 -109 341 -63 161 -104 238 -177 337 -166 226 -311 311 -554 326 -90 6 -214 -5 -259 -22 -17 -7 -86 125 -182 344 -30 70 -85 183 -121 252 -37 69 -96 184 -132 255 -36 73 -129 225 -210 345 -246 366 -316 453 -571 710 -401 404 -621 550 -929 614 -177 37 -304 35 -471 -7z"
       id="path4"
       style="fill:#dfdbd2;fill-opacity:1" />
  </g>
</svg>
